IKResults
version=1
nRows=37
nColumns=24
inDegrees=yes

Units are S.I. units (second, meters, Newtons, ...)
If the header above contains a line with 'inDegrees', this indicates whether rotational values are in degrees (yes) or radians (no).

endheader
time	pelvis_tilt	pelvis_list	pelvis_rotation	pelvis_tx	pelvis_ty	pelvis_tz	hip_flexion_r	hip_adduction_r	hip_rotation_r	knee_angle_r	ankle_angle_r	subtalar_angle_r	mtp_angle_r	hip_flexion_l	hip_adduction_l	hip_rotation_l	knee_angle_l	ankle_angle_l	subtalar_angle_l	mtp_angle_l	lumbar_extension	lumbar_bending	lumbar_rotation
7.100000	14.241042	1.781360	-177.594919	0.318913	0.459934	-1.204228	91.309380	-35.744927	-4.869382	-119.668175	39.749593	8.416380	0.000000	95.229253	-34.217481	-0.500406	-119.183424	39.890610	20.113211	0.000000	-18.471243	2.704335	2.423429
7.105000	14.328575	1.783746	-177.536990	0.318901	0.464467	-1.204297	90.664753	-35.728701	-5.330152	-118.889872	39.562412	8.355638	0.000000	94.568650	-34.019852	-0.881230	-118.391573	39.699573	19.948114	0.000000	-18.357848	2.697734	2.347847
7.110000	14.487810	1.788773	-177.589390	0.318742	0.468957	-1.204263	90.087197	-35.627498	-5.773496	-118.080978	39.383543	8.373346	0.000000	93.973725	-33.931061	-1.269877	-117.622472	39.535360	19.776950	0.000000	-18.145006	2.699782	2.375421
7.115000	14.498287	1.647359	-177.366360	0.318463	0.473548	-1.204674	89.473462	-35.784187	-6.086023	-117.403905	39.254376	8.282850	0.000000	93.126650	-33.633593	-1.808027	-116.772347	39.322218	19.648037	0.000000	-18.082703	2.481432	2.062423
7.120000	14.734160	1.851824	-177.710976	0.318275	0.478345	-1.204206	88.801488	-35.396997	-6.773521	-116.424383	38.963543	8.299419	0.000000	92.713182	-33.784233	-1.996942	-116.030769	39.240033	19.372434	0.000000	-17.793999	2.739401	2.472494
7.125000	14.834845	1.853098	-177.755511	0.318026	0.483147	-1.204129	88.152543	-35.315232	-7.239807	-115.582092	38.692259	8.311460	0.000000	92.029068	-33.710698	-2.417265	-115.214737	39.068539	19.248601	0.000000	-17.637234	2.760603	2.451618
7.130000	14.918850	1.837238	-177.817901	0.317795	0.487987	-1.204104	87.493070	-35.198902	-7.683704	-114.724440	38.446655	8.306724	0.000000	91.304841	-33.645082	-2.849034	-114.392572	38.896429	19.101244	0.000000	-17.511509	2.753578	2.457909
7.135000	14.987771	1.697969	-177.781159	0.317299	0.492661	-1.204316	86.909685	-35.213073	-7.990163	-113.956018	38.276255	8.330300	0.000000	90.480501	-33.521309	-3.412864	-113.559372	38.704854	19.009741	0.000000	-17.351239	2.576193	2.283634
7.140000	14.995610	1.590212	-177.693402	0.317189	0.497745	-1.204315	86.227676	-35.245437	-8.335169	-113.105337	38.048682	8.371645	0.000000	89.607459	-33.287885	-3.960429	-112.647098	38.491460	18.827647	0.000000	-17.326448	2.456254	2.172393
7.145000	15.054584	1.538283	-177.754271	0.316873	0.502765	-1.204290	85.565685	-35.141418	-8.745423	-112.239136	37.792173	8.394186	0.000000	88.817967	-33.214822	-4.440635	-111.785351	38.292752	18.685757	0.000000	-17.217004	2.389511	2.170518
7.150000	15.187096	1.558148	-177.949954	0.316397	0.507704	-1.204146	84.925629	-34.913654	-9.225097	-111.326547	37.506025	8.443614	0.000000	88.145768	-33.266116	-4.843475	-110.976085	38.115818	18.516213	0.000000	-16.991666	2.410338	2.309891
7.155000	15.155789	1.479024	-177.856522	0.316247	0.512985	-1.204233	84.150221	-34.929459	-9.630930	-110.429549	37.255076	8.452639	0.000000	87.259242	-33.030293	-5.341974	-110.015482	37.828923	18.373392	0.000000	-17.014509	2.322909	2.136143
7.160000	15.206853	1.415151	-177.919204	0.315896	0.518168	-1.204191	83.450023	-34.812510	-10.011826	-109.487073	36.977637	8.566254	0.000000	86.433902	-32.943068	-5.868855	-109.067028	37.642397	18.235558	0.000000	-16.912820	2.278502	2.083549
7.165000	15.258851	1.357188	-177.953839	0.315540	0.523378	-1.204152	82.744947	-34.712979	-10.419514	-108.540439	36.705255	8.619204	0.000000	85.621032	-32.812703	-6.353100	-108.154005	37.383505	18.135290	0.000000	-16.804059	2.236554	2.019065
7.170000	15.283606	1.330493	-178.015211	0.315142	0.528599	-1.204133	82.006961	-34.589274	-10.866862	-107.607182	36.402421	8.656520	0.000000	84.815521	-32.715417	-6.793384	-107.226491	37.142068	17.978619	0.000000	-16.718293	2.205329	2.043683
7.175000	15.382782	1.363803	-178.263826	0.314488	0.533745	-1.203942	81.312170	-34.286734	-11.337400	-106.630610	36.094882	8.699156	0.000000	84.092362	-32.812526	-7.207173	-106.351451	36.957981	17.818282	0.000000	-16.508274	2.262628	2.221869
7.180000	15.414530	1.349318	-178.348423	0.314070	0.539017	-1.203897	80.574350	-34.116810	-11.787874	-105.671720	35.766578	8.661755	0.000000	83.297823	-32.725147	-7.629709	-105.420548	36.683341	17.674457	0.000000	-16.402570	2.240818	2.249794
7.185000	15.427085	1.300802	-178.405454	0.313655	0.544375	-1.203859	79.821854	-33.963162	-12.189836	-104.692369	35.434390	8.659149	0.000000	82.448967	-32.597631	-8.096829	-104.459490	36.404187	17.529392	0.000000	-16.321608	2.211137	2.198775
7.190000	15.453568	1.268436	-178.502318	0.313219	0.549751	-1.203835	79.075350	-33.764381	-12.597710	-103.688957	35.099070	8.689789	0.000000	81.622709	-32.513094	-8.552173	-103.495157	36.108039	17.408499	0.000000	-16.219355	2.170778	2.239055
7.195000	15.464694	1.242399	-178.577704	0.312785	0.555181	-1.203829	78.302635	-33.571502	-13.007301	-102.675194	34.770050	8.735956	0.000000	80.792867	-32.403501	-8.989033	-102.512600	35.794458	17.259684	0.000000	-16.132410	2.127913	2.277591
7.200000	15.509856	1.249009	-178.673311	0.312261	0.560680	-1.203828	77.539248	-33.350852	-13.460372	-101.644598	34.422446	8.757765	0.000000	79.999089	-32.314794	-9.395868	-101.511131	35.483045	17.101619	0.000000	-15.986639	2.141719	2.305847
7.205000	15.522859	1.238399	-178.764247	0.311724	0.566173	-1.203771	76.766251	-33.130641	-13.873427	-100.614624	34.072743	8.732865	0.000000	79.165897	-32.217577	-9.821157	-100.517594	35.154949	16.981823	0.000000	-15.887459	2.131423	2.337657
7.210000	15.561972	1.216449	-178.856323	0.311206	0.571668	-1.203790	76.006714	-32.894209	-14.277378	-99.551647	33.741292	8.713868	0.000000	78.350803	-32.105135	-10.253631	-99.494211	34.820204	16.856179	0.000000	-15.752899	2.166843	2.237123
7.215000	15.614282	1.209701	-178.962878	0.310675	0.577139	-1.203768	75.261775	-32.642811	-14.682933	-98.473038	33.327130	8.746370	0.000000	77.559695	-32.007230	-10.675815	-98.475335	34.469923	16.764680	0.000000	-15.607809	2.122608	2.350030
7.220000	15.628923	1.201801	-179.047304	0.310116	0.582678	-1.203768	74.487155	-32.401956	-15.091996	-97.400316	32.916285	8.702841	0.000000	76.723929	-31.874939	-11.082249	-97.428116	34.133713	16.632272	0.000000	-15.492786	2.122973	2.378929
7.225000	15.645685	1.198355	-179.165343	0.309508	0.588138	-1.203757	73.727553	-32.122474	-15.479412	-96.334001	32.533153	8.672249	0.000000	75.909032	-31.788289	-11.492738	-96.403048	33.782659	16.485953	0.000000	-15.374738	2.110073	2.451938
7.230000	15.673225	1.184564	-179.235167	0.308901	0.593708	-1.203702	72.959130	-31.891026	-15.881496	-95.245668	32.122966	8.660200	0.000000	75.088512	-31.629289	-11.894760	-95.339037	33.388133	16.323816	0.000000	-15.238969	2.108231	2.416748
7.235000	15.667203	1.197222	-179.345663	0.308225	0.599282	-1.203731	72.141999	-31.598122	-16.293129	-94.147735	31.721381	8.625602	0.000000	74.247588	-31.532193	-12.275372	-94.302034	32.989347	16.183780	0.000000	-15.129945	2.159470	2.400249
7.240000	15.711691	1.192820	-179.430165	0.307606	0.604858	-1.203718	71.380613	-31.332851	-16.685441	-93.020642	31.288818	8.620033	0.000000	73.451135	-31.399760	-12.664573	-93.250495	32.609596	16.130371	0.000000	-14.975186	2.105647	2.534812
7.245000	15.720060	1.181927	-179.503056	0.306987	0.610429	-1.203737	70.608740	-31.088747	-17.102024	-91.910329	30.759659	8.482587	0.000000	72.604091	-31.237283	-13.068988	-92.140712	32.221093	16.015340	0.000000	-14.860602	2.084246	2.587663
7.250000	15.695710	1.172947	-179.562676	0.306410	0.615903	-1.203657	69.793386	-30.829431	-17.420389	-90.769758	30.389371	8.601138	0.000000	71.759110	-31.077851	-13.478525	-91.070205	31.821134	15.915652	0.000000	-14.684026	1.880189	3.149266
7.255000	15.761176	1.131881	-179.612933	0.305575	0.621484	-1.203650	69.061728	-30.616973	-17.788024	-89.637277	29.942226	8.602494	0.000000	70.937574	-30.891331	-13.932557	-89.937373	31.418031	15.842615	0.000000	-14.603660	2.080096	2.506112
7.260000	15.785427	1.131174	-179.707711	0.304805	0.627056	-1.203687	68.292319	-30.328314	-18.164910	-88.500216	29.516450	8.553524	0.000000	70.114785	-30.763404	-14.336618	-88.826061	30.994712	15.736351	0.000000	-14.457049	2.157202	2.394593
7.265000	15.799813	1.099037	-179.764950	0.304034	0.632508	-1.203579	67.550796	-30.116478	-18.540748	-87.411850	28.975957	8.422878	0.000000	69.271104	-30.580015	-14.796941	-87.724966	30.586444	15.593497	0.000000	-14.328524	2.091098	2.491715
7.270000	15.834105	1.052614	-179.630232	0.303221	0.637929	-1.203083	66.734150	-30.095438	-18.933056	-86.237385	28.613062	8.569291	0.000000	68.489824	-30.156924	-15.147090	-86.582554	30.145623	15.428221	0.000000	-14.164872	2.194163	2.141256
7.275000	15.832488	1.013894	-179.661496	0.302730	0.643353	-1.202935	65.947801	-29.859822	-19.277965	-85.031267	28.213902	8.593649	0.000000	67.812062	-29.891994	-15.160377	-85.246400	29.159563	15.562236	0.000000	-13.990160	1.888073	2.848701
7.280000	15.878186	1.015813	-179.711116	0.301728	0.648905	-1.202983	65.161668	-29.600861	-19.657452	-83.854149	27.685750	8.673567	0.000000	66.982867	-29.720084	-15.559481	-84.062473	28.713141	15.501363	0.000000	-13.903917	2.121561	2.228067
